<svg xmlns="http://www.w3.org/2000/svg" xmlns:xlink="http://www.w3.org/1999/xlink" version="1.1" x="0px" y="0px" viewBox="0 0 100 125" enable-background="new 0 0 100 100" xml:space="preserve">
    <polygon fill="green" points="92.311,13.465 88.451,13.465 84.621,13.465 80.76,13.465 80.76,17.295 76.93,17.295 76.93,21.154 73.07,21.154   73.07,24.984 69.24,24.984 69.24,28.845 65.381,28.845 65.381,32.675 61.551,32.675 61.551,36.535 57.689,36.535 57.689,40.365   53.859,40.365 53.859,44.225 50,44.225 50,48.085 46.14,48.085 46.14,51.915 42.31,51.915 42.31,55.774 38.451,55.774   38.451,59.604 34.621,59.604 34.621,63.465 30.76,63.465 30.76,59.604 26.93,59.604 26.93,55.774 23.07,55.774 23.07,51.915   19.241,51.915 19.241,48.085 15.38,48.085 15.38,44.225 11.55,44.225 7.69,44.225 3.86,44.225 3.86,48.085 3.86,51.915 3.86,55.774   3.86,59.604 3.86,63.465 7.69,63.465 7.69,67.295 11.55,67.295 11.55,71.154 15.38,71.154 15.38,74.984 19.241,74.984   19.241,78.845 23.07,78.845 23.07,82.675 26.93,82.675 26.93,86.535 30.76,86.535 34.621,86.535 38.451,86.535 38.451,82.675   42.31,82.675 42.31,78.845 46.14,78.845 46.14,74.984 50,74.984 50,71.154 53.859,71.154 53.859,67.295 57.689,67.295   57.689,63.465 61.551,63.465 61.551,59.604 65.381,59.604 65.381,55.774 69.24,55.774 69.24,51.915 73.07,51.915 73.07,48.085   76.93,48.085 76.93,44.225 80.76,44.225 80.76,40.365 84.621,40.365 84.621,36.535 88.451,36.535 88.451,32.675 92.311,32.675   92.311,28.845 96.141,28.845 96.141,24.984 96.141,21.154 96.141,17.295 96.141,13.465 "/>
</svg>
